<svg width="191" height="28" viewBox="0 0 191 28" fill="none" xmlns="http://www.w3.org/2000/svg">
<path fill-rule="evenodd" clip-rule="evenodd" d="M7.38842 26.4895C5.26775 26.4895 2.12075 25.8813 0.234625 24.7546C0.591309 23.927 1.26061 23.3286 2.21373 23.8424C3.91388 24.7592 5.62929 25.1686 7.52998 25.1686C10.2617 25.1686 12.2456 23.5979 12.1086 20.7611C11.8303 14.8178 -0.0342754 13.9155 7.44418e-05 6.77551C0.0295668 1.50068 4.62759 0 9.03513 0C11.1607 0 13.2473 0.428866 15.2997 1.28589C14.9478 2.14362 14.3517 2.85663 13.3011 2.34319C11.84 1.63514 10.3883 1.3011 8.8443 1.3011C6.16189 1.3011 4.63731 2.79718 4.62759 5.03068C4.5981 10.7142 16.6532 11.562 16.8534 18.9762C17.0001 24.3257 12.6363 26.4895 7.38842 26.4895Z" fill="white"/>
<mask id="mask0_36769_3" style="mask-type:luminance" maskUnits="userSpaceOnUse" x="80" y="7" width="18" height="21">
<path fill-rule="evenodd" clip-rule="evenodd" d="M80.9592 7.48639H97.0883V27.1448H80.9592V7.48639Z" fill="white"/>
</mask>
<g mask="url(#mask0_36769_3)">
<path fill-rule="evenodd" clip-rule="evenodd" d="M85.5977 15.8556L92.8805 15.2891C92.9004 12.7475 92.8068 8.55766 89.6082 8.55258C86.1979 8.55258 85.6962 13.1557 85.5977 15.8556ZM89.6526 27.1448C87.2018 27.1448 84.6529 26.3994 83.0536 24.3276C81.5574 22.3881 80.9966 19.9795 80.962 17.5451C80.9176 14.5034 81.6608 12.0636 83.1965 10.232C84.7266 8.39967 86.8378 7.48621 89.5244 7.48621C90.8137 7.48621 91.9455 7.67998 92.9249 8.07296C93.8994 8.46595 94.6866 9.00707 95.2771 9.70611C95.8725 10.4051 96.3152 11.2063 96.6157 12.1096C96.9159 13.0083 97.0731 14.0032 97.0878 15.0952C97.0979 15.6621 97.0535 16.1927 96.955 16.6777C96.9456 16.7284 96.9061 16.7642 96.8568 16.7642H85.627C85.6962 19.8009 86.1389 22.0002 86.9656 23.3678C87.7923 24.7358 89.1701 25.4197 91.0995 25.4197C93.1171 25.4197 94.6866 24.8173 96.2024 23.567C96.463 23.797 96.7338 24.4399 96.2073 24.9452C94.8292 26.2614 92.0688 27.1448 89.6526 27.1448Z" fill="white"/>
</g>
<path fill-rule="evenodd" clip-rule="evenodd" d="M97.5296 26.4889L104.723 18.0888L97.8041 8.42847H101.553C103.398 8.42847 103.123 9.15153 106.329 13.6328L107.431 15.1768L111.786 8.67261C111.918 8.47702 112.131 8.42847 112.334 8.42847H114.574L108.041 16.0562L115.591 26.4889H112.075C109.748 26.518 110.164 25.5751 107.071 21.3286L105.354 18.9683L100.395 26.2246C100.268 26.4105 100.065 26.4889 99.8008 26.4889H97.5296Z" fill="white"/>
<path fill-rule="evenodd" clip-rule="evenodd" d="M47.9894 24.3213V13.2855C47.9894 9.47447 46.5975 7.22443 43.0564 7.22443C40.0598 7.22443 38.044 8.80098 36.4442 10.5763C35.8551 8.4588 34.4681 7.22443 31.7591 7.22443C29.2281 7.22443 27.1529 8.46966 25.4789 10.3366L25.2855 11.0054L25.5133 11.3468C26.816 10.2041 28.3908 9.72938 29.6691 9.72938C32.1305 9.72938 32.3929 12.3879 32.3929 14.3873V24.3213L32.2244 26.4895H36.9147L36.7414 24.3213V11.3468C37.8709 10.3265 39.4458 9.72938 40.9168 9.72938C43.4823 9.72938 43.6409 12.6276 43.6409 14.3873V23.9382C43.6409 25.7396 44.1357 26.4895 45.2752 26.4895H48.1628L47.9894 24.3213Z" fill="white"/>
<path fill-rule="evenodd" clip-rule="evenodd" d="M78.0932 24.3365V13.2855C78.0932 9.51538 76.7256 7.22443 73.2285 7.22443C70.7469 7.22443 68.4172 8.44902 66.7416 10.3058L66.2238 11.2755L66.7708 11.3468C68.0946 10.2906 69.3304 9.72938 71.1183 9.72938C73.3651 9.72938 73.8046 11.9284 73.8046 14.3877V23.9386C73.8046 25.5405 74.1611 26.4895 75.4167 26.4895H78.2645L78.0932 24.3365Z" fill="white"/>
<path fill-rule="evenodd" clip-rule="evenodd" d="M56.5912 2.40832C56.5912 3.73696 55.5122 4.81628 54.1833 4.81628C52.8544 4.81628 51.775 3.73696 51.775 2.40832C51.775 1.07932 52.8544 0 54.1833 0C55.5122 0 56.5912 1.07932 56.5912 2.40832Z" fill="white"/>
<path fill-rule="evenodd" clip-rule="evenodd" d="M51.775 8.42847L51.953 10.4906V24.4128L51.775 26.4895H56.5912L56.4132 24.4128V10.8669C56.4132 9.47444 56.1489 8.42847 54.7401 8.42847H51.775Z" fill="white"/>
<path fill-rule="evenodd" clip-rule="evenodd" d="M61.4075 8.42847L61.5856 10.4906L61.5805 24.4128L61.4075 26.4895H66.2238L66.0458 24.4128V11.3018L66.0151 10.9893C66.0151 9.59166 65.776 8.42847 64.3723 8.42847H61.4075Z" fill="white"/>
<path fill-rule="evenodd" clip-rule="evenodd" d="M20.4692 8.42847L20.647 10.4906V24.4128L20.4692 26.4895H25.2855L25.1076 24.4128V11.3018L25.0719 10.9893C25.0719 9.59166 24.8385 8.42847 23.4312 8.42847H20.4692Z" fill="white"/>
<path d="M137.265 8.00299V26.6753H134.625V10.3237H130.41V8.00299H137.265Z" fill="white"/>
<path d="M146.685 15.4453C149.352 15.4453 151.308 15.9521 152.553 16.9657C153.816 17.9616 154.447 19.3309 154.447 21.0736C154.447 22.1762 154.18 23.172 153.647 24.0612C153.131 24.9326 152.34 25.6261 151.273 26.1418C150.224 26.6398 148.925 26.8887 147.378 26.8887C146.062 26.8887 144.791 26.6931 143.564 26.3019C142.337 25.8929 141.323 25.3327 140.523 24.6214L141.75 22.5141C142.39 23.1187 143.208 23.6077 144.204 23.9812C145.2 24.3368 146.249 24.5147 147.352 24.5147C148.756 24.5147 149.841 24.2213 150.606 23.6344C151.388 23.0298 151.78 22.2118 151.78 21.1803C151.78 20.06 151.353 19.2153 150.499 18.6462C149.646 18.0594 148.187 17.766 146.125 17.766H141.883L142.87 8.00299H153.407V10.3237H145.111L144.604 15.4453H146.685Z" fill="white"/>
<path d="M169.907 17.2502V26.6753H168.2V18.744H164.146L164.039 20.8424C163.98 22.111 163.867 23.172 163.701 24.0256C163.535 24.8674 163.262 25.5431 162.883 26.0529C162.504 26.5627 161.976 26.8176 161.3 26.8176C160.992 26.8176 160.642 26.7642 160.251 26.6575L160.358 25.2171C160.512 25.2527 160.654 25.2705 160.785 25.2705C161.259 25.2705 161.615 25.063 161.852 24.648C162.089 24.2331 162.243 23.7411 162.314 23.172C162.385 22.603 162.45 21.7909 162.51 20.7357L162.67 17.2502H169.907Z" fill="white"/>
<path d="M181.727 22.0161C181.727 22.1465 181.715 22.3185 181.691 22.5318H174.044C174.151 23.3617 174.513 24.0316 175.129 24.5413C175.757 25.0393 176.534 25.2882 177.459 25.2882C178.585 25.2882 179.492 24.9089 180.179 24.1501L181.122 25.2527C180.695 25.7506 180.162 26.13 179.521 26.3908C178.893 26.6516 178.188 26.782 177.405 26.782C176.409 26.782 175.526 26.5805 174.756 26.1774C173.985 25.7625 173.386 25.1875 172.959 24.4524C172.545 23.7174 172.337 22.8875 172.337 21.9628C172.337 21.0499 172.539 20.226 172.942 19.4909C173.357 18.7559 173.92 18.1868 174.631 17.7837C175.354 17.3688 176.166 17.1613 177.067 17.1613C177.968 17.1613 178.769 17.3688 179.468 17.7837C180.179 18.1868 180.731 18.7559 181.122 19.4909C181.525 20.226 181.727 21.0677 181.727 22.0161ZM177.067 18.6018C176.249 18.6018 175.562 18.8507 175.005 19.3487C174.459 19.8466 174.139 20.4986 174.044 21.3048H180.091C179.996 20.5105 179.67 19.8644 179.112 19.3664C178.567 18.8567 177.885 18.6018 177.067 18.6018Z" fill="white"/>
<path d="M191 18.744H187.55V26.6753H185.843V18.744H182.393V17.2502H191V18.744Z" fill="white"/>
<circle cx="122.259" cy="17.0422" r="2.2229" fill="white"/>
</svg>
