<svg width="250" height="27" viewBox="0 0 250 27" fill="none" xmlns="http://www.w3.org/2000/svg">
<path d="M172.08 7.67712V14.7309H164.009V7.67712H159.908V26.2139H164.009V18.832H172.08V26.2139H176.181V7.67712H172.08Z" fill="#000014"/>
<path d="M194.029 7.67712H188.386H184.285H178.642V11.4829H184.285V26.2139H188.386V11.4829H194.029V7.67712Z" fill="#000014"/>
<path d="M210.859 11.4829V7.67712H200.689H196.621V11.4829V15.0262V18.8648V22.3753V26.2139H200.689H210.859V22.3753H200.689V18.8648H210.859V15.0262H200.689V11.4829H210.859Z" fill="#000014"/>
<path d="M230.971 7.67712H226.05L220.571 15.0262H218.832V7.67712H214.731V26.2139H218.832V18.8648H220.571L226.05 26.2139H230.971L224.048 16.9291L230.971 7.67712Z" fill="#000014"/>
<path d="M151.608 7.67712L143.307 19.849V7.67712H139.206V26.2139H143.307L151.608 14.0419V26.2139H155.709V7.67712H151.608Z" fill="#000014"/>
<path d="M240.19 7.021C234.777 7.021 230.38 11.4173 230.38 16.8307C230.38 22.2441 234.777 26.6404 240.19 26.6404C245.604 26.6404 250 22.2441 250 16.8307C250.033 11.4501 245.636 7.021 240.19 7.021ZM240.19 22.605C237.008 22.605 234.449 20.0459 234.449 16.8635C234.449 13.6811 237.008 11.122 240.19 11.122C243.373 11.122 245.932 13.6811 245.932 16.8635C245.964 20.0459 243.373 22.605 240.19 22.605Z" fill="#000014"/>
<path d="M96.8503 26.2138L104.003 17.618L97.1127 7.74271H100.853C102.69 7.74271 102.428 8.49731 105.61 13.0577L106.693 14.6325L111.023 7.97237C111.155 7.77552 111.384 7.7099 111.581 7.7099H113.812L107.316 15.5183L114.829 26.2138H111.319C108.989 26.2466 109.416 25.2952 106.332 20.9317L104.626 18.5039L99.6718 25.9185C99.5406 26.1154 99.3437 26.181 99.0812 26.181H96.8503V26.2138Z" fill="#000014"/>
<path d="M89.3373 26.5747C86.811 26.5747 84.1864 25.8529 82.5459 23.8188C81.004 21.9159 80.4462 19.5537 80.3806 17.1587C80.3478 14.1731 81.1024 11.7781 82.6772 9.97368C84.252 8.16922 86.4173 7.28339 89.1732 7.28339C90.4856 7.28339 91.6667 7.48023 92.6837 7.87393C93.7008 8.26763 94.4882 8.79258 95.1116 9.48155C95.7349 10.1705 96.1942 10.9579 96.4895 11.8437C96.7848 12.7296 96.9488 13.7138 96.9816 14.7637C96.9816 15.3214 96.9488 15.8464 96.8504 16.3057C96.8504 16.3713 96.7848 16.4041 96.752 16.4041H85.2034C85.269 19.3897 85.7284 21.5222 86.5814 22.8674C87.4344 24.2125 88.8452 24.8687 90.8465 24.8687C92.9134 24.8687 94.521 24.2781 96.0958 23.0642C96.3583 23.2939 96.6536 23.9172 96.0958 24.4094C94.6522 25.7217 91.8307 26.5747 89.3373 26.5747ZM85.1706 15.5183L92.6509 14.9605C92.6837 12.4671 92.5853 8.36606 89.2717 8.36606C85.794 8.36606 85.269 12.8608 85.1706 15.5183Z" fill="#000014"/>
<path d="M77.4935 24.0813V13.2545C77.4935 9.54719 76.0827 7.31622 72.441 7.31622C69.8819 7.31622 67.4541 8.53013 65.7153 10.3346C65.7153 8.89102 65.4856 7.70992 64.0749 7.70992H61.1221L61.2861 9.80966V24.0485L61.1221 26.181H65.9121L65.7481 24.0485V11.3188C67.126 10.269 68.4056 9.74404 70.2428 9.74404C72.5722 9.74404 73.0315 11.9094 73.0315 14.3044V23.6876C73.0315 25.2624 73.3924 26.181 74.7048 26.181H77.6575L77.4935 24.0813Z" fill="#000014"/>
<path d="M56.496 2.36215C56.496 3.67448 55.4133 4.72435 54.101 4.72435C52.7887 4.72435 51.706 3.67448 51.706 2.36215C51.706 1.04981 52.7887 -6.10352e-05 54.101 -6.10352e-05C55.4133 -6.10352e-05 56.496 1.04981 56.496 2.36215Z" fill="#000014"/>
<path d="M51.87 7.70986L52.034 9.80961V24.0484L51.87 26.181H56.66L56.496 24.0484V10.1705C56.496 8.75973 56.2335 7.67706 54.8228 7.67706H51.87V7.70986Z" fill="#000014"/>
<path d="M47.3424 24.0813V13.2545C47.3424 9.51439 45.9317 7.31622 42.2899 7.31622C39.2388 7.31622 37.1718 8.85822 35.5314 10.5971C34.9409 8.53013 33.4973 7.31622 30.7414 7.31622C28.1495 7.31622 26.0498 8.53013 24.3438 10.3674V10.3346C24.3438 8.89102 24.1141 7.70992 22.7033 7.70992H19.7506L19.9146 9.80966V24.0485L19.7506 26.181H24.5406L24.3766 24.0485V11.3188C25.7217 10.2034 27.3293 9.74404 28.6088 9.74404C31.1351 9.74404 31.3975 12.3359 31.3975 14.3044V24.0485L31.2335 26.181H36.0235L35.8595 24.0485V11.3188C37.0078 10.3346 38.6154 9.74404 40.1246 9.74404C42.7492 9.74404 42.9133 12.5984 42.9133 14.3044V23.6876C42.9133 25.4592 43.4054 26.181 44.5865 26.181H47.5393L47.3424 24.0813Z" fill="#000014"/>
<path d="M7.64442 26.5748C5.44626 26.5748 2.19823 25.9514 0.229723 24.8359C0.590615 24.0157 1.27959 23.3924 2.26384 23.9173C4.03549 24.8359 5.80715 25.2624 7.77565 25.2624C10.5972 25.2624 12.6641 23.6876 12.5329 20.8333C12.2376 14.8622 -0.0327427 13.9764 6.56744e-05 6.79134C0.032874 1.50919 4.79009 0 9.35045 0C11.5486 0 13.714 0.426517 15.8465 1.27953C15.4856 2.13255 14.8623 2.85433 13.7796 2.3294C12.2704 1.60761 10.7612 1.27953 9.1536 1.27953C6.36489 1.27953 4.79008 2.78872 4.79008 5.01969C4.75728 10.7283 17.2245 11.5814 17.4541 18.9961C17.5853 24.4094 13.0578 26.5748 7.64442 26.5748Z" fill="#000014"/>
<path d="M130.84 16.4042H120.177V17.3556H130.84V16.4042Z" fill="#000014"/>
</svg>
